# xmcd
#
# Track frame offsets: 
#        150
#        13128
#        30371
#        44175
#        65456
#        83494
#        102181
#        120023
#        137368
#        163592
#
# Disc length: 2376 seconds
#
# Revision: 1
# Processed by: cddbd v1.5.2PL0 Copyright (c) Steve Scherf et al.
# Submitted via: ExactAudioCopy v1.0b4
#
DISCID=7009460a
DTITLE=Chris Cain - Chris Cain
DYEAR=2017
DGENRE=Blues-Rock
TTITLE0=Tired Of The Way You Do
TTITLE1=Meanest Woman In Town
TTITLE2=My Baby Wants To Leave me
TTITLE3=Tell Tale Signs
TTITLE4=Trying To Forget it
TTITLE5=Back On Top
TTITLE6=Evil Minded Woman
TTITLE7=Kidney Stew
TTITLE8=Sitting Here Wondering
TTITLE9=You're Gonna Need Me
EXTD=
EXTT0=
EXTT1=
EXTT2=
EXTT3=
EXTT4=
EXTT5=
EXTT6=
EXTT7=
EXTT8=
EXTT9=
PLAYORDER=
